<svg width="40" height="40" viewBox="0 0 40 40" fill="none" xmlns="http://www.w3.org/2000/svg">
<g clip-path="url(#clip0_630_3207)">
<g clip-path="url(#clip1_630_3207)">
<path d="M28 10H12C10.9 10 10.01 10.9 10.01 12L10 30L14 26H28C29.1 26 30 25.1 30 24V12C30 10.9 29.1 10 28 10ZM25 22H15C14.45 22 14 21.55 14 21C14 20.45 14.45 20 15 20H25C25.55 20 26 20.45 26 21C26 21.55 25.55 22 25 22ZM25 19H15C14.45 19 14 18.55 14 18C14 17.45 14.45 17 15 17H25C25.55 17 26 17.45 26 18C26 18.55 25.55 19 25 19ZM25 16H15C14.45 16 14 15.55 14 15C14 14.45 14.45 14 15 14H25C25.55 14 26 14.45 26 15C26 15.55 25.55 16 25 16Z" fill="#40484C"/>
</g>
</g>
<defs>
<clipPath id="clip0_630_3207">
<rect width="40" height="40" rx="20" fill="white"/>
</clipPath>
<clipPath id="clip1_630_3207">
<rect width="24" height="24" fill="white" transform="translate(8 8)"/>
</clipPath>
</defs>
</svg>
