<svg width="84" height="84" viewBox="0 0 84 84" fill="none" xmlns="http://www.w3.org/2000/svg">
<g clip-path="url(#clip0_218_15551)">
<path d="M80.5 42L71.96 32.235L73.15 19.32L60.515 16.45L53.9 5.25L42 10.36L30.1 5.25L23.485 16.415L10.85 19.25L12.04 32.2L3.5 42L12.04 51.765L10.85 64.715L23.485 67.585L30.1 78.75L42 73.605L53.9 78.715L60.515 67.55L73.15 64.68L71.96 51.765L80.5 42ZM35.315 58.52L22.015 45.185L27.195 40.005L35.315 48.16L55.79 27.615L60.97 32.795L35.315 58.52Z" fill="#04677E"/>
</g>
<defs>
<clipPath id="clip0_218_15551">
<rect width="84" height="84" fill="white"/>
</clipPath>
</defs>
</svg>
