<svg width="40" height="40" viewBox="0 0 40 40" fill="none" xmlns="http://www.w3.org/2000/svg">
<g clip-path="url(#clip0_515_2827)">
<g clip-path="url(#clip1_515_2827)">
<path d="M20 27C18.9 27 18 27.9 18 29C18 30.1 18.9 31 20 31C21.1 31 22 30.1 22 29C22 27.9 21.1 27 20 27ZM14 9C12.9 9 12 9.9 12 11C12 12.1 12.9 13 14 13C15.1 13 16 12.1 16 11C16 9.9 15.1 9 14 9ZM14 15C12.9 15 12 15.9 12 17C12 18.1 12.9 19 14 19C15.1 19 16 18.1 16 17C16 15.9 15.1 15 14 15ZM14 21C12.9 21 12 21.9 12 23C12 24.1 12.9 25 14 25C15.1 25 16 24.1 16 23C16 21.9 15.1 21 14 21ZM26 13C27.1 13 28 12.1 28 11C28 9.9 27.1 9 26 9C24.9 9 24 9.9 24 11C24 12.1 24.9 13 26 13ZM20 21C18.9 21 18 21.9 18 23C18 24.1 18.9 25 20 25C21.1 25 22 24.1 22 23C22 21.9 21.1 21 20 21ZM26 21C24.9 21 24 21.9 24 23C24 24.1 24.9 25 26 25C27.1 25 28 24.1 28 23C28 21.9 27.1 21 26 21ZM26 15C24.9 15 24 15.9 24 17C24 18.1 24.9 19 26 19C27.1 19 28 18.1 28 17C28 15.9 27.1 15 26 15ZM20 15C18.9 15 18 15.9 18 17C18 18.1 18.9 19 20 19C21.1 19 22 18.1 22 17C22 15.9 21.1 15 20 15ZM20 9C18.9 9 18 9.9 18 11C18 12.1 18.9 13 20 13C21.1 13 22 12.1 22 11C22 9.9 21.1 9 20 9Z" fill="#40484C"/>
</g>
</g>
<defs>
<clipPath id="clip0_515_2827">
<rect width="40" height="40" rx="20" fill="white"/>
</clipPath>
<clipPath id="clip1_515_2827">
<rect width="24" height="24" fill="white" transform="translate(8 8)"/>
</clipPath>
</defs>
</svg>
